<?xml version="1.0" encoding="UTF-8" ?>
<svg
  id="svg2"
  xmlns="http://www.w3.org/2000/svg"
  xmlns:svg="http://www.w3.org/2000/svg"
  xmlns:sodipodi="http://sodipodi.sourceforge.net/DTD/sodipodi-0.dtd"
  xmlns:inkscape="http://www.inkscape.org/namespaces/inkscape"
  version="1.1"
  viewBox="0 0 64 65.2"
>
  <!-- Generator: Adobe Illustrator 29.3.0, SVG Export Plug-In . SVG Version: 2.1.0 Build 146)  -->
  <defs>
  </defs>
  <sodipodi:namedview
    id="namedview2"
    bordercolor="#000000"
    borderopacity="0.25"
    inkscape:current-layer="g1"
    inkscape:cx="32"
    inkscape:cy="40.013722"
    inkscape:deskcolor="#d1d1d1"
    inkscape:pagecheckerboard="0"
    inkscape:pageopacity="0.0"
    inkscape:showpageshadow="2"
    inkscape:window-height="1212"
    inkscape:window-maximized="0"
    inkscape:window-width="1392"
    inkscape:window-x="0"
    inkscape:window-y="25"
    inkscape:zoom="9.109375"
    pagecolor="#ffffff"
  />
  <g id="g1">
    <path
      id="path1"
      class="st0"
      d="M34.4,7c-1.4-1.3-3.5-1.3-4.8,0L7,29.6c-1.3,1.3-1.3,3.5,0,4.8l22.6,22.6c1.3,1.3,3.5,1.3,4.8,0l22.6-22.6c1.3-1.3,1.3-3.5,0-4.8L34.4,7ZM55.6,33l-22.6,22.6c-.6.5-1.5.5-2,0l-22.6-22.6c-.6-.6-.6-1.5,0-2,0,0,0,0,0,0L31,8.4c.6-.6,1.5-.6,2,0,0,0,0,0,0,0l22.6,22.6c.6.6.6,1.5,0,2,0,0,0,0,0,0ZM59.8,26.7L37.2,4.2c-2.9-2.9-7.6-2.9-10.5,0,0,0,0,0,0,0L4.2,26.8c-2.9,2.9-2.9,7.6,0,10.5,0,0,0,0,0,0l22.6,22.6c2.9,2.9,7.6,2.9,10.5,0,0,0,0,0,0,0l22.6-22.6c2.9-2.9,2.9-7.6,0-10.5,0,0,0,0,0,0ZM58.4,35.8l-22.6,22.6c-2.1,2.1-5.6,2.1-7.7,0L5.6,35.8c-2.1-2.1-2.1-5.6,0-7.7L28.2,5.6c2.1-2.1,5.6-2.1,7.7,0l22.6,22.6c2.1,2.1,2.1,5.6,0,7.7ZM47,29v6c0,.6-.4,1-1,1h-10v10c0,.6-.4,1-1,1h-6c-.6,0-1-.4-1-1v-10h-10c-.6,0-1-.4-1-1v-6c0-.6.4-1,1-1h10v-10c0-.6.4-1,1-1h6c.6,0,1,.4,1,1v10h10c.6,0,1,.4,1,1Z"
    />
  </g>
</svg>
