<?xml version="1.0" encoding="UTF-8" ?>
<svg
  id="svg11"
  xmlns="http://www.w3.org/2000/svg"
  xmlns:svg="http://www.w3.org/2000/svg"
  xmlns:sodipodi="http://sodipodi.sourceforge.net/DTD/sodipodi-0.dtd"
  xmlns:inkscape="http://www.inkscape.org/namespaces/inkscape"
  version="1.1"
  viewBox="0 0 110 110.3"
>
  <!-- Generator: Adobe Illustrator 29.3.0, SVG Export Plug-In . SVG Version: 2.1.0 Build 146)  -->
  <defs>
  </defs>
  <sodipodi:namedview
    id="namedview11"
    bordercolor="#000000"
    borderopacity="0.25"
    inkscape:current-layer="svg11"
    inkscape:cx="55"
    inkscape:cy="67.45283"
    inkscape:deskcolor="#d1d1d1"
    inkscape:pagecheckerboard="0"
    inkscape:pageopacity="0.0"
    inkscape:showpageshadow="2"
    inkscape:window-height="1212"
    inkscape:window-maximized="0"
    inkscape:window-width="1392"
    inkscape:window-x="0"
    inkscape:window-y="25"
    inkscape:zoom="5.3"
    pagecolor="#ffffff"
  />
  <path id="path1" class="st0" d="M3.1,79.2l-26.7,28.4H-5.7l19.9-28.5H3.1Z" />
  <path id="path2" class="st0" d="M63.9,107.7l-3.3-28.8h-11.4l-3.3,28.8h18Z" />
  <path
    id="path3"
    class="st0"
    d="M70.2,1.4c-2.9,0-5.5,1.7-6.8,4.1-.6,1.1-1,2.3-1,3.7,0,2.9,1.6,5.4,4,6.7.7.4,1.4.7,2.2.8,0,0,.2,0,.3,0,.4,0,.8.1,1.3.1,4.3,0,7.7-3.5,7.7-7.7s-.5-3.1-1.3-4.3c-1.4-2.1-3.8-3.4-6.4-3.4h0Z"
  />
  <path
    id="path4"
    class="st0"
    d="M89.9,90.8l-6.4-11.6h-8.1v.2l1.3,9.4c.2,1.1,0,2.2-.5,3.2,0,0,0,.2,0,.3l4.8,15.3h18.3l-9.4-16.8h0Z"
  />
  <path
    id="path5"
    class="st0"
    d="M10.8,107.7h18.3l3.8-11.9c-.3,0-.7-.2-1-.4-.1,0-.3-.2-.4-.2-1.2-.7-2.1-1.8-2.6-3.1-.5-1.4-.4-3,.3-4.4l1.8-3.7,2.3-4.8h-6.7l-15.8,28.5h0Z"
  />
  <path
    id="path6"
    class="st0"
    d="M133.6,107.7l-26.7-28.5h-11.1l19.9,28.5h17.9Z"
  />
  <path
    id="path7"
    class="st0"
    d="M84.5,46.4c-.2-.4-.6-.8-1-1.1l-8-6.1-7.5-5.8-.3,1-1.9,6.7,2.1,1.6,11.1,8.5c.5.4,1,.6,1.6.7s1.1,0,1.7,0c.7-.2,1.3-.6,1.7-1.1,0,0,.2-.1.2-.2.3-.3.4-.7.6-1.1,0,0,0-.2,0-.2h0c.2-.9,0-1.8-.3-2.6,0,0,0-.1,0-.2h0Z"
  />
  <path id="path8" d="M60.8,54.8h0s0,0,0,0h0,0,0Z" />
  <path
    id="path9"
    class="st0"
    d="M47.7,56.7c-.3-.5-.5-1-.6-1.4l-12.4,25.6-3.8,7.8s0,0,0,.2c-.4.9-.4,1.8-.1,2.7,0,.2.2.5.3.7,0,.1.2.2.2.3,0,0,.1.2.2.3.2.2.4.4.6.5.2.1.4.3.6.4,1.8.9,4.1,0,5-1.7l5.4-11.1,9.4-19.3-2.4-2.1c-.8-.7-1.7-1.5-2.4-2.7h0Z"
  />
  <path
    id="path10"
    class="st0"
    d="M41.1,28.7c-1.5.6-2.7,1.8-3.5,3.2-.3.5-.5,1-.6,1.5l-1.4,5-2.3,8.4c-.3,1-.1,1.9.3,2.7,0,0,0,0,0,0,0,.2.2.4.4.5,0,0,0,0,0,0,.5.6,1.1,1,1.8,1.2.2,0,.4,0,.6.1h0c.4,0,.7,0,1.1,0,.4,0,.7-.2,1-.4.4-.3.8-.6,1.1-1,.3-.4.5-.8.6-1.3l3.2-11.4.4-1.4c0-.3.3-.5.6-.6l5.8-2.7,2.4-1.1s0,0,.1,0c0,0,.2,0,.3,0,.2,0,.5,0,.7.2,0,0,0,0,0,0,.2.2.3.5.3.7,0,0,0,.2,0,.2l-2.5,8.5-2.4,8.3c-.2.8-.4,1.6-.6,2.3-.2,1.3-.1,2.6.6,3.7,0,.2.2.3.3.4.3.5.7.9,1.1,1.3.2.2.3.3.5.5l12.8,11.6c.1,0,.2.3.3.4,0,0,0,.1,0,.2l2.8,20.3c0,.5.3,1,.5,1.4.6,1.1,1.8,1.8,3.1,1.8.3,0,.5,0,.8,0,.5,0,1-.3,1.4-.6.6-.5,1.1-1.1,1.4-1.9.2-.6.3-1.2.2-1.8l-2.9-20.6c-.2-1.1-.6-2.2-1.2-3.1-.3-.5-.6-.9-1-1.2l-9.5-8.7s0,0,0,0c-.2-.2-.3-.4-.3-.6s0-.2,0-.3l8-27.6c.3-.9.3-1.8,0-2.7-.1-.6-.3-1.1-.6-1.6-.2-.3-.4-.6-.6-.8-.7-.9-1.7-1.5-2.8-1.9,0,0-.2,0-.3,0-.7-.1-2.1,0-4.7,1l-17.9,7.9h0Z"
  />
</svg>
