<?xml version="1.0" encoding="UTF-8" ?>
<svg
  id="svg2"
  xmlns="http://www.w3.org/2000/svg"
  xmlns:svg="http://www.w3.org/2000/svg"
  xmlns:sodipodi="http://sodipodi.sourceforge.net/DTD/sodipodi-0.dtd"
  xmlns:inkscape="http://www.inkscape.org/namespaces/inkscape"
  version="1.1"
  viewBox="0 0 32 32.4"
>
  <!-- Generator: Adobe Illustrator 29.3.0, SVG Export Plug-In . SVG Version: 2.1.0 Build 146)  -->
  <defs>
  </defs>
  <sodipodi:namedview
    id="namedview2"
    bordercolor="#000000"
    borderopacity="0.25"
    inkscape:current-layer="svg2"
    inkscape:cx="16"
    inkscape:cy="20.006861"
    inkscape:deskcolor="#d1d1d1"
    inkscape:pagecheckerboard="0"
    inkscape:pageopacity="0.0"
    inkscape:showpageshadow="2"
    inkscape:window-height="1212"
    inkscape:window-maximized="0"
    inkscape:window-width="2056"
    inkscape:window-x="0"
    inkscape:window-y="25"
    inkscape:zoom="18.21875"
    pagecolor="#ffffff"
  />
  <path
    id="path1"
    class="st0"
    d="M20.5,11.5V2c0-.3-.2-.5-.5-.5h-8c-.3,0-.5.2-.5.5v9.5H2c-.3,0-.5.2-.5.5v8c0,.3.2.5.5.5h9.5v9.5c0,.3.2.5.5.5h8c.3,0,.5-.2.5-.5v-9.5h9.5c.3,0,.5-.2.5-.5v-8c0-.3-.2-.5-.5-.5h-9.5ZM16.5,27v-2c0-.3-.2-.5-.5-.5s-.5.2-.5.5v2c0,.3.2.5.5.5s.5-.2.5-.5ZM16.5,22v-2c0-.3-.2-.5-.5-.5s-.5.2-.5.5v2c0,.3.2.5.5.5s.5-.2.5-.5ZM7,15.5h-2c-.3,0-.5.2-.5.5s.2.5.5.5h2c.3,0,.5-.2.5-.5s-.2-.5-.5-.5ZM12,15.5h-2c-.3,0-.5.2-.5.5s.2.5.5.5h2c.3,0,.5-.2.5-.5s-.2-.5-.5-.5ZM22,15.5h-2c-.3,0-.5.2-.5.5s.2.5.5.5h2c.3,0,.5-.2.5-.5s-.2-.5-.5-.5ZM27,15.5h-2c-.3,0-.5.2-.5.5s.2.5.5.5h2c.3,0,.5-.2.5-.5s-.2-.5-.5-.5ZM16.5,12v-2c0-.3-.2-.5-.5-.5s-.5.2-.5.5v2c0,.3.2.5.5.5s.5-.2.5-.5ZM16.5,7v-2c0-.3-.2-.5-.5-.5s-.5.2-.5.5v2c0,.3.2.5.5.5s.5-.2.5-.5Z"
  />
</svg>
