<?xml version="1.0" encoding="UTF-8" ?>
<svg
  id="svg5"
  xmlns="http://www.w3.org/2000/svg"
  xmlns:svg="http://www.w3.org/2000/svg"
  xmlns:sodipodi="http://sodipodi.sourceforge.net/DTD/sodipodi-0.dtd"
  xmlns:inkscape="http://www.inkscape.org/namespaces/inkscape"
  version="1.1"
  viewBox="0 0 100 100"
>
  <!-- Generator: Adobe Illustrator 29.3.0, SVG Export Plug-In . SVG Version: 2.1.0 Build 146)  -->
  <defs>
  </defs>
  <sodipodi:namedview
    id="namedview5"
    bordercolor="#000000"
    borderopacity="0.25"
    inkscape:current-layer="svg5"
    inkscape:cx="50"
    inkscape:cy="62.521441"
    inkscape:deskcolor="#d1d1d1"
    inkscape:pagecheckerboard="0"
    inkscape:pageopacity="0.0"
    inkscape:showpageshadow="2"
    inkscape:window-height="1212"
    inkscape:window-maximized="0"
    inkscape:window-width="1392"
    inkscape:window-x="0"
    inkscape:window-y="25"
    inkscape:zoom="5.83"
    pagecolor="#ffffff"
  />
  <path
    id="path1"
    class="st0"
    d="M70.8,68.7c-1.5,0-3,.3-4.4.7l-3.9-11.4c-.7-2.1-2.7-3.5-5-3.5h-3.3c-1.1,0-2,.9-2,2s.9,2,2,2h3.3c.5,0,1,.3,1.2.8l.6,1.7h-16.9l-.3-.8h.9c.8-.2,1.4-.9,1.4-1.7v-.2c0-1.1-.9-2.1-2-2.2l-5.6-.5c-.7,0-1.3.2-1.8.7-.5.5-.7,1.2-.6,1.8l.2,1.6c0,.4.2.7.5.9.3.2.7.3,1,.3l1.9-.2.6,1.9-4.3,7.2c-1.6-.7-3.3-1-5.2-1-7.5,0-13.6,6.1-13.6,13.6s6.1,13.6,13.6,13.6,12.5-5,13.4-11.6h5.7c.6,0,1.1-.3,1.5-.7l12.2-14.4.7,2.1c-3.4,2.5-5.6,6.5-5.6,11,0,7.5,6.1,13.6,13.6,13.6s13.6-6.1,13.6-13.6c0-7.5-6.1-13.6-13.6-13.6ZM40.4,67.6l4.2,12.7h-1.9c-.5-3.4-2.3-6.4-4.8-8.5l2.5-4.2ZM35.8,75.3c1.4,1.3,2.4,3.1,2.9,5h-5.9l3-5ZM29.3,91.9c-5.3,0-9.6-4.3-9.6-9.6s4.3-9.6,9.6-9.6,2.1.2,3.1.5l-4.8,8c-.4.6-.4,1.4,0,2s1,1,1.7,1h9.4c-.9,4.3-4.8,7.6-9.4,7.6ZM48.4,79.2l-4.7-14.2h16.7l-12,14.2ZM70.8,91.9c-5.3,0-9.6-4.3-9.6-9.6s1.2-5.2,3-7c1.1,3.1,2.9,6,5.1,8.4.4.4.9.6,1.4.6s1-.2,1.4-.6c.8-.8.8-2,0-2.8-1.9-2-3.4-4.4-4.3-7l-.2-.7c1-.3,2-.5,3.1-.5,5.3,0,9.6,4.3,9.6,9.6s-4.3,9.6-9.6,9.6Z"
  />
  <polygon
    id="polygon1"
    class="st0"
    points="80.4 46.6 50.1 28.6 19.6 46.8 19.6 55.7 50.1 37.5 80.4 55.5 80.4 46.6"
  />
  <polygon
    id="polygon2"
    class="st0"
    points="80.4 24.6 50.1 6.6 19.6 24.7 19.6 33.7 50.1 15.5 80.4 33.5 80.4 24.6"
  />
  <polygon
    id="polygon3"
    class="st0"
    points="92 9 92 48.3 92 51.7 92 94.3 99 94.3 99 51.7 99 48.3 99 9 92 9"
  />
  <polygon
    id="polygon4"
    class="st0"
    points="1.2 9 1.2 51.7 1.2 54.3 1.2 94.3 8.2 94.3 8.2 54.3 8.2 51.7 8.2 9 1.2 9"
  />
</svg>
