<?xml version="1.0" encoding="UTF-8" ?>
<svg
  id="svg3"
  xmlns="http://www.w3.org/2000/svg"
  xmlns:svg="http://www.w3.org/2000/svg"
  xmlns:sodipodi="http://sodipodi.sourceforge.net/DTD/sodipodi-0.dtd"
  xmlns:inkscape="http://www.inkscape.org/namespaces/inkscape"
  version="1.1"
  viewBox="0 0 36 36.7"
>
  <!-- Generator: Adobe Illustrator 29.3.0, SVG Export Plug-In . SVG Version: 2.1.0 Build 146)  -->
  <defs>
  </defs>
  <sodipodi:namedview
    id="namedview3"
    bordercolor="#000000"
    borderopacity="0.25"
    inkscape:current-layer="svg3"
    inkscape:cx="18"
    inkscape:cy="22.507719"
    inkscape:deskcolor="#d1d1d1"
    inkscape:pagecheckerboard="0"
    inkscape:pageopacity="0.0"
    inkscape:showpageshadow="2"
    inkscape:window-height="1212"
    inkscape:window-maximized="0"
    inkscape:window-width="1392"
    inkscape:window-x="0"
    inkscape:window-y="25"
    inkscape:zoom="16.194444"
    pagecolor="#ffffff"
  />
  <path
    id="path1"
    class="st0"
    d="M20.2,26.7c-.9-.4-2,0-2.4.9-1.6,3.6-5.8,5.3-9.5,3.7s-5.3-5.8-3.7-9.5c.7-1.7,2-3,3.7-3.7.9-.5,1.2-1.6.7-2.5-.4-.7-1.3-1.1-2-.8C1.5,17.2-1,23.5,1.3,29c2.3,5.5,8.7,8,14.1,5.7,2.5-1.1,4.6-3.1,5.7-5.7.4-.9,0-1.9-.9-2.3Z"
  />
  <path
    id="path2"
    class="st0"
    d="M35.3,26.6c-.4-.9-1.5-1.2-2.4-.8l-2.4,1.2-4.5-5.2c-.3-.4-.8-.6-1.4-.6h-9.9v-4.4h6.3c1,0,1.8-.9,1.8-1.9,0,0,0,0,0,0,0-1-.8-1.8-1.8-1.8h-6.3c0,0,0-3.9,0-3.9,2.3-1,3.3-3.6,2.3-5.9C16.2,1,13.5,0,11.3.9c-2.3,1-3.3,3.6-2.3,5.9.5,1,1.3,1.9,2.3,2.3v5.9h0v8c0,1,.8,1.8,1.8,1.8h10.8l4.8,5.6c.3.4.8.6,1.4.6.3,0,.5,0,.8-.2l3.6-1.9c.9-.4,1.2-1.5.8-2.4Z"
  />
</svg>
