<?xml version="1.0" encoding="UTF-8" standalone="no" ?>
<svg
  id="svg5"
  version="1.1"
  viewBox="0 0 100 100"
  sodipodi:docname="noun-bad-parking-470749.svg"
  inkscape:version="1.3.2 (091e20e, 2023-11-25)"
  xmlns:inkscape="http://www.inkscape.org/namespaces/inkscape"
  xmlns:sodipodi="http://sodipodi.sourceforge.net/DTD/sodipodi-0.dtd"
  xmlns="http://www.w3.org/2000/svg"
  xmlns:svg="http://www.w3.org/2000/svg"
>
  <!-- Generator: Adobe Illustrator 29.3.0, SVG Export Plug-In . SVG Version: 2.1.0 Build 146)  -->
  <defs>
  </defs>
  <sodipodi:namedview
    id="namedview5"
    bordercolor="#000000"
    borderopacity="0.25"
    inkscape:current-layer="svg5"
    inkscape:cx="48.627787"
    inkscape:cy="62.521441"
    inkscape:deskcolor="#d1d1d1"
    inkscape:pagecheckerboard="0"
    inkscape:pageopacity="0.0"
    inkscape:showpageshadow="2"
    inkscape:window-height="1212"
    inkscape:window-maximized="0"
    inkscape:window-width="1392"
    inkscape:window-x="0"
    inkscape:window-y="25"
    inkscape:zoom="5.83"
    pagecolor="#ffffff"
  />
  <path
    id="path1"
    class="st0"
    d="M 21.6,9.3 C 12.1,11.3 6,20.6 8,30.1 l 2.2,10.8 C 3.2,43.3 -1,50.5 0.5,58 l 4.6,22.2 9.4,-1.9 c 2.3,11.3 0.4,1.9 1.1,5.2 0.8,3.9 4.6,6.4 8.5,5.6 3.9,-0.8 6.7,-4.7 5.9,-8.6 l -1.1,-5.2 39.3,-8.2 c 2.3,11.3 0.4,1.9 1.1,5.2 0.8,3.9 4.6,6.4 8.5,5.6 3.9,-0.8 6.7,-4.7 5.9,-8.6 l -1.1,-5.2 8,-1.7 L 86,40.1 C 84.5,32.7 77.7,27.8 70.3,28.3 L 68.1,17.5 C 66.1,8 56.8,1.9 47.3,3.9 L 21.6,9.2 Z m 1.1,5.2 25.7,-5.3 c 6.6,-1.4 13,2.8 14.4,9.5 l 2.2,10.7 -4.1,0.8 c -2.2,-5 -7.8,-7.9 -13.4,-6.7 -5.6,1.2 -9.6,6.1 -9.7,11.5 L 15.4,39.6 13.2,28.9 c -1.4,-6.6 2.8,-13 9.5,-14.4 z m 25.8,13.8 c 3,-0.6 5.9,0.6 7.4,2.9 l -13,2.7 c 0.5,-2.7 2.6,-5 5.6,-5.6 z M 15.2,48.7 c 3.6,-0.8 7.2,1.6 7.9,5.2 0.8,3.6 -1.6,7.2 -5.2,7.9 C 14.3,62.5 10.7,60.2 10,56.6 9.2,53 11.6,49.4 15.2,48.7 Z M 69,37.6 c 3.6,-0.8 7.2,1.6 7.9,5.2 0.8,3.6 -1.6,7.2 -5.2,7.9 -3.6,0.8 -7.2,-1.6 -7.9,-5.2 -0.7,-3.6 1.6,-7.2 5.2,-7.9 z"
  />
  <path
    id="path2"
    class="st0"
    d="m 19.6,54.7 c 0.3,1.7 -0.7,3.3 -2.4,3.7 -1.7,0.3 -3.3,-0.7 -3.7,-2.4 -0.3,-1.7 0.7,-3.3 2.4,-3.7 1.7,-0.3 3.3,0.7 3.7,2.4 z"
  />
  <path
    id="path3"
    class="st0"
    d="m 73.4,43.5 c 0.3,1.7 -0.7,3.3 -2.4,3.7 -1.7,0.3 -3.3,-0.7 -3.7,-2.4 -0.3,-1.7 0.7,-3.3 2.4,-3.7 1.7,-0.3 3.3,0.7 3.7,2.4 z"
  />
  <path
    id="path4"
    class="st0"
    d="m 60.2,81.1 v 11.3 h -76.3 v 5.3 H 65.5 V 86.4 h 43.2 v -5.3 z"
  />
</svg>
