<svg
  xmlns="http://www.w3.org/2000/svg"
  xmlns:xlink="http://www.w3.org/1999/xlink"
  xmlns:serif="http://www.serif.com/"
  width="100%"
  height="100%"
  viewBox="0 0 111 95"
  xml:space="preserve"
  style="fill-rule:evenodd;clip-rule:evenodd;stroke-linejoin:round;stroke-miterlimit:2;"
>    <g transform="matrix(1,0,0,1,-64.72,-373.235)">        <g
      transform="matrix(2.66667,0,0,2.66667,0,0)"
    >            <g
        transform="matrix(0,-1,-1,0,42.0798,139.963)"
      >                <path
          d="M-3.197,-3.197C-4.963,-3.197 -6.394,-1.766 -6.394,0C-6.394,1.766 -4.963,3.197 -3.197,3.197C-1.431,3.197 0,1.766 0,0C0,-1.766 -1.431,-3.197 -3.197,-3.197"
          style="fill:white;fill-rule:nonzero;"
        />            </g>            <g
        transform="matrix(-0.16375,0.986502,0.986502,0.16375,52.8635,164.641)"
      >                <path
          d="M-3.471,-6.473L6.776,-6.473L6.993,-4.033L-5.366,-3.043L-3.471,-6.473Z"
          style="fill:white;fill-rule:nonzero;"
        />            </g>            <g
        transform="matrix(1,0,0,1,50.572,157.437)"
      >                <path
          d="M0,-3.397L-3.737,-10.347C-4.153,-11.122 -5.116,-11.415 -5.893,-11.003L-9.546,-9.07L-5.105,-2.24L-10.928,0.725C-11.669,1.102 -11.997,1.985 -11.682,2.755L-9.528,8.018L-7.054,7.122L-8.069,3.487L-1.699,1.113C0.117,0.436 0.918,-1.689 0,-3.397"
          style="fill:white;fill-rule:nonzero;"
        />            </g>            <g
        transform="matrix(-0.883802,0.467861,0.467861,0.883802,36.2838,155.748)"
      >                <path
          d="M-6.753,-4.305L1.76,-4.305L1.972,-2.155L-7.051,-0.934L-6.753,-4.305Z"
          style="fill:white;fill-rule:nonzero;"
        />            </g>            <g
        transform="matrix(-0.840001,-0.542585,-0.542585,0.840001,33.4812,174.302)"
      >                <path
          d="M0.021,-7.518C-1.202,-5.229 -0.591,-2.382 1.466,-0.798L0.021,1.439C-3.26,-0.948 -4.227,-5.439 -2.217,-8.963L0.021,-7.518Z"
          style="fill:white;fill-rule:nonzero;"
        />            </g>            <g
        transform="matrix(0.840001,0.542585,0.542585,-0.840001,25.0691,165.89)"
      >                <path
          d="M2.217,0.006C0.993,2.295 1.605,5.142 3.662,6.726L2.217,8.963C-1.064,6.577 -2.031,2.086 -0.021,-1.439L2.217,0.006Z"
          style="fill:white;fill-rule:nonzero;"
        />            </g>            <g
        transform="matrix(-0.542585,0.840001,0.840001,0.542585,39.4086,160.761)"
      >                <path
          d="M4.881,-4.854C3.657,-2.565 4.27,0.283 6.326,1.866L4.881,4.103C1.6,1.717 0.633,-2.775 2.643,-6.299L4.881,-4.854Z"
          style="fill:white;fill-rule:nonzero;"
        />            </g>            <g
        transform="matrix(0.542534,-0.840034,-0.840034,-0.542534,30.9961,169.173)"
      >                <path
          d="M-2.644,-2.658C-3.867,-0.369 -3.255,2.478 -1.198,4.061L-2.644,6.3C-5.924,3.913 -6.891,-0.579 -4.881,-4.104L-2.644,-2.658Z"
          style="fill:white;fill-rule:nonzero;"
        />            </g>            <g
        transform="matrix(-0.840001,-0.542585,-0.542585,0.840001,59.0038,174.302)"
      >                <path
          d="M0.021,-7.518C-1.202,-5.229 -0.591,-2.382 1.466,-0.798L0.021,1.439C-3.26,-0.948 -4.227,-5.439 -2.217,-8.963L0.021,-7.518Z"
          style="fill:white;fill-rule:nonzero;"
        />            </g>            <g
        transform="matrix(0.840001,0.542585,0.542585,-0.840001,50.5917,165.89)"
      >                <path
          d="M2.217,0.006C0.993,2.295 1.605,5.142 3.662,6.726L2.217,8.963C-1.064,6.577 -2.031,2.086 -0.021,-1.439L2.217,0.006Z"
          style="fill:white;fill-rule:nonzero;"
        />            </g>            <g
        transform="matrix(-0.542585,0.840001,0.840001,0.542585,64.9311,160.761)"
      >                <path
          d="M4.881,-4.854C3.657,-2.565 4.27,0.283 6.326,1.866L4.881,4.103C1.6,1.717 0.633,-2.775 2.643,-6.299L4.881,-4.854Z"
          style="fill:white;fill-rule:nonzero;"
        />            </g>            <g
        transform="matrix(0.542534,-0.840034,-0.840034,-0.542534,56.5187,169.173)"
      >                <path
          d="M-2.644,-2.658C-3.867,-0.369 -3.255,2.478 -1.198,4.061L-2.644,6.3C-5.924,3.913 -6.891,-0.579 -4.881,-4.104L-2.644,-2.658Z"
          style="fill:white;fill-rule:nonzero;"
        />            </g>        </g>    </g></svg>
