<svg xmlns="http://www.w3.org/2000/svg" xmlns:xlink="http://www.w3.org/1999/xlink" xmlns:serif="http://www.serif.com/" width="100%" height="100%" viewBox="0 0 290 142" xml:space="preserve" style="fill-rule:evenodd;clip-rule:evenodd;stroke-linejoin:round;stroke-miterlimit:2;">    <g transform="matrix(1,0,0,1,-47.7259,-50.1376)">        <g transform="matrix(2.66667,0,0,2.66667,0,0)">            <g transform="matrix(1,0,0,1,22.9689,26.194)">                <path d="M0,5.089L0,1.776L1.08,1.776C2.088,1.776 2.4,1.129 2.4,0.025L2.4,-2.352C2.4,-3.456 2.088,-4.08 1.08,-4.08L0,-4.08L0,-7.392L3.024,-7.392C6.337,-7.392 6.408,-5.04 6.408,-2.976L6.408,0.672C6.408,2.737 6.337,5.089 3.024,5.089L0,5.089ZM-4.776,-7.392L-0.768,-7.392L-0.768,12.481L-4.776,12.481L-4.776,-7.392Z" style="fill:white;fill-rule:nonzero;"></path>            </g>        </g>        <g transform="matrix(2.66667,0,0,2.66667,0,0)">            <g transform="matrix(1,0,0,1,38.5684,18.8025)">                <path d="M0,19.873L0,11.28L-2.4,11.28L-2.4,7.968L0,7.968L0,0L4.009,0L4.009,19.873L0,19.873ZM-7.177,0L-3.168,0L-3.168,19.873L-7.177,19.873L-7.177,0Z" style="fill:white;fill-rule:nonzero;"></path>            </g>        </g>        <g transform="matrix(2.66667,0,0,2.66667,0,0)">            <g transform="matrix(1,0,0,1,-9,-167.523)">                <rect x="54.119" y="186.325" width="4.009" height="19.873" style="fill:white;"></rect>            </g>        </g>        <g transform="matrix(2.66667,0,0,2.66667,0,0)">            <g transform="matrix(1,0,0,1,-9,-167.523)">                <path d="M65.448,202.886L69.001,202.886L69.001,206.198L65.448,206.198L65.448,202.886ZM60.672,186.325L64.68,186.325L64.68,206.198L60.672,206.198L60.672,186.325Z" style="fill:white;fill-rule:nonzero;"></path>            </g>        </g>        <g transform="matrix(2.66667,0,0,2.66667,0,0)">            <g transform="matrix(1,0,0,1,-9,-167.523)">                <path d="M75.264,202.886L78.817,202.886L78.817,206.198L75.264,206.198L75.264,202.886ZM70.487,186.325L74.496,186.325L74.496,206.198L70.487,206.198L70.487,186.325Z" style="fill:white;fill-rule:nonzero;"></path>            </g>        </g>        <g transform="matrix(2.66667,0,0,2.66667,0,0)">            <g transform="matrix(1,0,0,1,74.2072,32.8426)">                <path d="M0,-8.208L1.32,-14.041L5.16,-14.041L1.801,-1.751L0,-8.208ZM-2.616,5.833L-2.616,-0.359L-6.408,-14.041L-2.616,-14.041L1.368,0.48L1.368,5.833L-2.616,5.833Z" style="fill:white;fill-rule:nonzero;"></path>            </g>        </g>        <g transform="matrix(2.66667,0,0,2.66667,0,0)">            <g transform="matrix(1,0,0,1,89.1593,18.8025)">                <path d="M0,19.873L0,16.561L1.08,16.561C2.088,16.561 2.4,15.936 2.4,14.832L2.4,13.032C2.4,11.928 2.088,11.28 1.08,11.28L-0.769,11.28L-0.769,19.873L-4.776,19.873L-4.776,0L-0.769,0L-0.769,7.968L1.08,7.968C2.088,7.968 2.4,7.344 2.4,6.24L2.4,5.04C2.4,3.936 2.088,3.312 1.08,3.312L0,3.312L0,0L3.024,0C6.337,0 6.408,2.352 6.408,4.416L6.408,4.992C6.408,6.96 6.337,9.384 3.048,9.696C6.337,9.96 6.408,12.145 6.408,14.088L6.408,15.457C6.408,17.521 6.337,19.873 3.024,19.873L0,19.873Z" style="fill:white;fill-rule:nonzero;"></path>            </g>        </g>        <g transform="matrix(2.66667,0,0,2.66667,0,0)">            <g transform="matrix(1,0,0,1,-9,-167.523)">                <rect x="106.75" y="186.325" width="4.009" height="19.873" style="fill:white;"></rect>            </g>        </g>        <g transform="matrix(2.66667,0,0,2.66667,0,0)">            <g transform="matrix(1,0,0,1,112.175,18.8025)">                <path d="M0,19.873L-3.097,13.969L-3.097,5.544L-0.72,0L3.288,0L-1.176,9.984L4.009,19.873L0,19.873ZM-7.873,0L-3.864,0L-3.864,19.873L-7.873,19.873L-7.873,0Z" style="fill:white;fill-rule:nonzero;"></path>            </g>        </g>        <g transform="matrix(2.66667,0,0,2.66667,0,0)">            <g transform="matrix(1,0,0,1,-9,-167.522)">                <path d="M130.896,202.885L135,202.885L135,206.197L130.896,206.197L130.896,202.885ZM130.896,186.324L135,186.324L135,189.636L130.896,189.636L130.896,186.324ZM126.119,206.198L126.119,186.324L130.127,186.324L130.127,194.293L134.855,194.293L134.855,197.605L130.127,197.605L130.127,206.198L126.119,206.198Z" style="fill:white;fill-rule:nonzero;"></path>            </g>        </g>        <g transform="matrix(2.66667,0,0,2.66667,0,0)">            <g transform="matrix(1,0,0,1,29.7762,42.6496)">                <path d="M0,28.76L-3.057,3.96L-8.649,3.96L-8.094,0L1.98,0L5.765,28.76L0,28.76ZM-11.879,28.76L-8.788,5.106L-3.821,5.106L-3.474,7.676L-4.794,18.131L-2.328,18.131L-1.737,22.924L-5.385,22.924L-6.079,28.76L-11.879,28.76Z" style="fill:white;fill-rule:nonzero;"></path>            </g>        </g>        <g transform="matrix(2.66667,0,0,2.66667,0,0)">            <g transform="matrix(1,0,0,1,47.9448,55.1189)">                <path d="M0,3.821L5.8,3.821L5.8,11.324C5.8,14.867 2.952,16.673 -1.598,16.846C-0.556,15.248 -0.556,13.616 -1.598,12.019C-0.591,11.81 0,11.011 0,10.004L0,3.821ZM0,-0.938L0,-6.148C0,-7.12 -0.591,-7.919 -1.598,-8.162C-2.64,-9.795 -2.64,-11.393 -1.598,-13.025C2.952,-12.817 5.8,-10.629 5.8,-7.12L5.8,-0.938L0,-0.938ZM-10.386,-7.12C-10.386,-10.698 -7.468,-12.921 -2.814,-13.06C-3.856,-11.462 -3.856,-9.83 -2.814,-8.232C-3.96,-8.058 -4.585,-7.259 -4.585,-6.183L-4.585,9.969C-4.585,11.046 -3.926,11.88 -2.814,12.053C-1.772,13.651 -1.772,15.283 -2.814,16.881C-7.468,16.742 -10.386,14.901 -10.386,11.324L-10.386,-7.12Z" style="fill:white;fill-rule:nonzero;"></path>            </g>        </g>        <g transform="matrix(2.66667,0,0,2.66667,0,0)">            <g transform="matrix(1,0,0,1,59.4783,42.6496)">                <path d="M0,28.76L0,0L9.725,0L9.725,4.793L5.8,4.793L5.8,28.76L0,28.76ZM-3.89,0L-1.147,0L-1.147,4.793L-3.89,4.793L-3.89,0Z" style="fill:white;fill-rule:nonzero;"></path>            </g>        </g>        <g transform="matrix(2.66667,0,0,2.66667,0,0)">            <g transform="matrix(1,0,0,1,-9,-110.942)">                <rect x="80.463" y="153.591" width="5.8" height="28.76" style="fill:white;"></rect>            </g>        </g>        <g transform="matrix(2.66667,0,0,2.66667,0,0)">            <g transform="matrix(1,0,0,1,91.1235,65.0882)">                <path d="M0,-16.117C0,-17.09 -0.591,-17.889 -1.597,-18.132C-2.64,-19.764 -2.64,-21.362 -1.597,-22.995C2.952,-22.786 5.801,-20.598 5.801,-17.09L5.801,1.354C5.801,4.898 2.952,6.704 -1.597,6.877C-0.556,5.279 -0.556,3.647 -1.597,2.049C-0.591,1.841 0,1.042 0,0.034L0,-16.117ZM-10.386,-17.09C-10.386,-20.667 -7.468,-22.89 -2.814,-23.029C-3.855,-21.431 -3.855,-19.799 -2.814,-18.201C-3.96,-18.028 -4.585,-17.228 -4.585,-16.152L-4.585,0C-4.585,1.076 -3.925,1.91 -2.814,2.084C-1.772,3.681 -1.772,5.314 -2.814,6.912C-7.468,6.773 -10.386,4.932 -10.386,1.354L-10.386,-17.09Z" style="fill:white;fill-rule:nonzero;"></path>            </g>        </g>        <g transform="matrix(2.66667,0,0,2.66667,0,0)">            <g transform="matrix(1,0,0,1,111.758,61.128)">                <path d="M0,-8.197L0,-18.479L5.21,-18.479L5.21,6.287L0,-8.197ZM-11.358,10.282L-11.358,-14.415L-6.148,-0.034L-6.148,10.282L-11.358,10.282ZM-0.938,10.282L-11.358,-18.479L-5.175,-18.479L5.21,10.282L-0.938,10.282Z" style="fill:white;fill-rule:nonzero;"></path>            </g>        </g>        <g transform="matrix(2.66667,0,0,2.66667,0,0)">            <g transform="matrix(1,0,0,1,-9,-110.941)">                <path d="M129.514,176.376L135.315,176.376L135.315,182.351L129.514,182.351L129.514,176.376ZM129.896,174.362L129.305,153.59L135.488,153.59L134.897,174.362L129.896,174.362Z" style="fill:white;fill-rule:nonzero;"></path>            </g>        </g>    </g></svg>
