<?xml version="1.0" encoding="UTF-8" standalone="no" ?>
<!-- Created with Inkscape (http://www.inkscape.org/) -->
<svg
  width="512mm"
  height="512mm"
  viewBox="0 0 512 512"
  version="1.1"
  id="svg1"
  xml:space="preserve"
  xmlns:xlink="http://www.w3.org/1999/xlink"
  xmlns="http://www.w3.org/2000/svg"
  xmlns:svg="http://www.w3.org/2000/svg"
><defs id="defs1"><pattern
      xlink:href="#Wave"
      preserveAspectRatio="none"
      id="pattern44"
      patternTransform="matrix(2.3179597,0.93651651,-1.0488985,2.5961149,0,0)"
      x="26"
      y="-1"
    /><pattern
      patternUnits="userSpaceOnUse"
      width="24"
      height="10"
      preserveAspectRatio="xMidYMid"
      id="Wave"
      style="fill:#000000"
      x="0"
      y="0"
    ><g id="wave_g" style="display:inline"><path
          d="M 12,-2 C 9.1666695,-2 7.1679672,-0.56445187 5.4179687,0.68554687 3.6679703,1.9355456 2.1666645,3 0,3 V 5 C 2.8333305,5 4.8320328,3.5644519 6.5820312,2.3144531 8.3320297,1.0644544 9.8333355,0 12,0 14.166665,0 15.667971,1.0644544 17.417969,2.3144531 19.167967,3.5644519 21.166669,5 24,5 V 3 C 21.833335,3 20.332029,1.9355456 18.582031,0.68554687 16.832033,-0.56445189 14.833331,-2 12,-2 Z"
          id="path3"
        /><path
          d="M 12,3 C 9.1666695,3 7.1679672,4.4355481 5.4179687,5.6855469 3.6679703,6.9355456 2.1666645,8 0,8 v 2 C 2.8333305,10 4.8320328,8.5644519 6.5820312,7.3144531 8.3320297,6.0644544 9.8333355,5 12,5 14.166665,5 15.667971,6.0644544 17.417969,7.3144531 19.167967,8.5644519 21.166669,10 24,10 V 8 C 21.833335,8 20.332029,6.9355456 18.582031,5.6855469 16.832033,4.4355481 14.833331,3 12,3 Z"
          id="path43"
        /><path
          d="M 12,8 C 9.1666695,8 7.1679672,9.4355481 5.4179687,10.685547 3.6679703,11.935546 2.1666645,13 0,13 v 2 C 2.8333305,15 4.8320328,13.564452 6.5820312,12.314453 8.3320297,11.064454 9.8333355,10 12,10 c 2.166665,0 3.667971,1.064454 5.417969,2.314453 C 19.167967,13.564452 21.166669,15 24,15 V 13 C 21.833335,13 20.332029,11.935546 18.582031,10.685547 16.832033,9.4355481 14.833331,8 12,8 Z"
          id="path5"
        /></g></pattern></defs><rect
    style="fill:#64d246;fill-opacity:0.99;stroke:none;stroke-width:0.203986"
    id="rect4"
    width="512"
    height="512"
    x="-3.8146973e-06"
    y="0"
  /><g
    id="g7"
    transform="matrix(1.1621568,-0.00663972,0.0078441,1.1711913,-368.07808,-338.07619)"
    style="display:none"
  ><g
      id="g18"
      transform="matrix(0.32673992,0.00185236,-0.00202503,0.30002092,443.71464,401.93514)"
    ><path
        fill="#000000"
        opacity="1"
        stroke="none"
        d="m 510.00006,776.48462 c -5.96109,0 -11.42212,0 -17.1792,0 0,-14.18201 0,-27.92999 0,-42.31134 4.79361,0 9.56915,0.057 14.34287,-0.0124 8.63815,-0.12561 14.16592,-3.72052 14.71908,-12.3562 0.89966,-14.04438 0.74079,-28.2284 -0.11157,-42.28424 -0.4566,-7.5301 -5.50964,-11.32953 -13.24054,-11.732 -8.28241,-0.43121 -16.60468,-0.0973 -25.37329,-0.0973 0,36.14545 0,72.19922 0,108.52191 -17.19724,0 -33.93332,0 -50.91181,0 0,-83.85187 0,-167.76269 0,-251.94116 16.75037,0 33.48493,0 50.57804,0 0,33.4057 0,66.81696 0,100.513 9.7478,0 19.18011,0.48511 28.53125,-0.17694 5.86636,-0.41528 10.06155,-4.95825 10.3707,-10.62317 0.65826,-12.0625 0.89605,-24.23749 -0.0284,-36.26385 -0.57264,-7.45124 -6.33948,-11.01551 -14.23041,-11.2229 -4.6601,-0.1225 -9.32355,-0.11676 -13.98526,-0.18476 -0.12775,-0.002 -0.25284,-0.18896 -0.67261,-0.5238 0,-13.5271 0,-27.29431 0,-41.78491 1.39505,0 2.96377,-0.0204 4.53186,0.003 14.31424,0.21539 28.70621,-0.41998 42.92337,0.86981 19.11359,1.73401 29.28198,11.30048 32.23499,30.36127 2.96411,19.13239 2.901,38.54083 -0.14283,57.71295 -2.93292,18.47357 -14.10608,29.50806 -32.49823,33.15692 -0.9779,0.19403 -1.93768,0.48914 -2.89441,0.77564 -0.46136,0.13818 -0.89599,0.36609 -1.61981,0.66943 13.06885,1.88306 25.36322,5.44971 31.77844,17.69891 3.52033,6.72168 6.06257,14.69886 6.36121,22.21656 0.71881,18.09662 0.79852,36.32934 -0.60626,54.37158 -1.77606,22.81049 -15.31403,34.25806 -38.38593,34.62329 -7.99511,0.12659 -15.99402,0.0204 -24.49127,0.0206 z"
        id="path12-1"
      /><path
        fill="#010101"
        opacity="1"
        stroke="none"
        d="m 688.2865,738.54834 c -3.58313,-29.35346 -7.07623,-58.26306 -10.61426,-87.16718 -3.57837,-29.23413 -7.19849,-58.46319 -10.8125,-87.69293 -0.18188,-1.47064 -0.47888,-2.927 -0.76733,-4.66089 -16.31037,0 -32.43622,0 -48.90753,0 1.66113,-11.81848 3.27276,-23.28436 4.90051,-34.86474 29.57831,0 58.85864,0 88.58868,0 11.04798,83.91589 22.09046,167.78961 33.17871,252.01123 -16.92151,0 -33.53387,0 -50.75519,0 -1.55621,-12.20453 -3.14843,-24.69184 -4.81109,-37.62549 z"
        id="path13-0"
      /><path
        fill="#000000"
        opacity="1"
        stroke="none"
        d="m 321.48297,683.00037 c 3e-5,31.28717 3e-5,62.07428 3e-5,93.17102 -17.00247,0 -33.58447,0 -50.56717,0 0,-83.82105 0,-167.70606 0,-251.87879 16.49823,0 33.24823,0 50.56714,0 0,52.73596 0,105.47186 0,158.70777 z"
        id="path14-4"
      /><path
        fill="#010101"
        opacity="1"
        stroke="none"
        d="m 655.82654,647.68488 c -1.52674,11.94775 -3.01013,23.44952 -4.55133,35.39935 7.31854,0 14.25457,0 21.56543,0 1.75958,14.14569 3.47522,27.9386 5.25091,42.21417 -10.73901,0 -21.15503,0 -31.93017,0 -1.07849,8.77002 -2.12134,17.14691 -3.13556,25.52728 -1.01648,8.39936 -2.0044,16.80219 -3.02942,25.4101 -17.0459,0 -33.7713,0 -51.11273,0 9.02636,-69.0777 18.02545,-137.9469 27.05041,-207.01367 14.57544,0 29.01435,0 43.30341,0 5.11706,16.30017 2.62597,32.54766 0.3183,48.82116 -1.37702,9.71082 -2.46698,19.46235 -3.72925,29.64161 z"
        id="path15-1"
      /><path
        fill="#010101"
        opacity="1"
        stroke="none"
        d="m 412.82825,616.99866 c -0.25995,9.47845 -0.29337,18.47058 -0.82331,27.43347 -1.46084,24.70666 -14.1885,37.41583 -38.86111,38.30194 -13.79636,0.49542 -27.62506,0.0891 -41.78946,0.0891 0,-14.0871 0,-27.97577 0,-42.31128 4.43442,0 8.88126,0.0911 13.32312,-0.0185 10.0874,-0.24884 15.84778,-4.96295 16.25128,-15.07434 0.59027,-14.7901 0.57779,-29.6399 -0.0265,-44.42957 -0.40454,-9.90076 -6.12482,-14.41009 -16.07077,-14.49561 -4.46847,-0.0383 -8.93756,-0.006 -13.6141,-0.006 0,-14.23023 0,-28.15131 0,-42.13672 15.2799,0 30.46454,-0.94422 45.4855,0.22113 22.56732,1.75079 34.01566,14.0476 35.17255,36.99365 0.92172,18.28076 0.6788,36.62018 0.95285,55.43323 z"
        id="path16-6"
      /><path
        fill="#010101"
        opacity="1"
        stroke="none"
        d="m 813.16827,568.04431 c -1.2312,46.22968 -2.45727,91.96631 -3.69317,138.06836 -14.78461,0 -29.31488,0 -44.20258,0 -1.72949,-60.6369 -3.45453,-121.11798 -5.18695,-181.85669 18.10419,0 36.01428,0 53.08783,0 0,14.49817 0,28.89673 -0.005,43.78833 z"
        id="path17-1"
      /><path
        fill="#000000"
        opacity="1"
        stroke="none"
        d="m 762.00531,728.14026 c -0.3927,-3.09314 0.30017,-4.24341 3.35907,-4.21118 15.64691,0.16516 31.29651,0.0764 47.2876,0.0764 0,17.47223 0,34.83875 0,52.34241 -16.73468,0 -33.36158,0 -50.64667,0 0,-15.90399 0,-31.81317 0,-48.20758 z"
        id="path18-4"
      /></g></g><g
    id="g6"
    transform="matrix(0.89561498,0,0,0.90797728,39.58086,-9.1082668)"
    style="display:inline"
  ><g id="g5" transform="matrix(1.0549629,0,0,1.0549629,-120.46846,66.350785)">
	<g id="g47"><path
          class="st0"
          d="m 366.73603,419.196 c 2.526,-4.714 2.975,-10.268 1.237,-15.328 l -25.673,-74.39 c -3.607,-10.466 -8.944,-20.232 -15.795,-28.916 l -41.676,-55.109 15.284,-79.52 19.739,25.068 c 2.432,3.105 5.588,5.579 9.186,7.214 l 51.9,23.433 c 3.754,1.695 8.036,1.799 11.859,0.285 3.841,-1.514 6.894,-4.516 8.486,-8.313 l 0.156,-0.398 c 3.035,-7.283 0.009,-15.673 -6.981,-19.35 l -46.52,-24.471 -19.609,-40.291 c -9.896,-20.327 -28.839,-34.755961 -51.07,-38.88994 l -20.18,-3.754 c -10.155,-1.878 -20.639,-0.519 -29.98,3.892 l -58.768,27.74894 c -6.522,3.08 -11.678,8.442 -14.515,15.06 l -26.14,61.026 c -1.661,3.875 -1.686,8.26 -0.095,12.152 1.601,3.902 4.706,7.006 8.598,8.607 l 0.588,0.234 c 7.794,3.191 16.72,-0.329 20.241,-7.966 l 23.995,-51.952 37.964,-12.274 -37.628,167.212 -36.641,91.369 c -2.033,5.06 -1.799,10.743 0.614,15.622 2.413,4.896 6.79,8.52 12.04,9.991 l 1.583,0.432 c 8.425,2.352 17.37,-1.289 21.755,-8.858 l 43.432,-75.021 25.881,-51.346 47.22,52.116 34.877,73.896 c 3.936,8.331 13.244,12.69 22.162,10.38 l 0.389,-0.104 c 5.174,-1.339 9.542,-4.781 12.085,-9.487 z"
          id="path2-7"
          style="display:inline"
        /><path
          class="st0"
          d="m 283.58,81.258 c 22.438,0 40.629,-18.191 40.629,-40.638 C 324.209,18.191 306.018,0 283.58,0 c -22.438,0 -40.628,18.191 -40.628,40.62 0,22.447 18.19,40.638 40.628,40.638 z"
          id="path1"
        /></g>
	<g
        id="g45"
        style="display:inline"
        transform="matrix(0.94790063,0,0,0.94790063,114.19213,-62.893951)"
      ><path
          style="display:inline;fill:#f16fb7;fill-opacity:1;fill-rule:nonzero;stroke:#d8107d;stroke-width:4.04061;stroke-dasharray:none;stroke-opacity:1;paint-order:markers fill stroke"
          d="m 210.27845,109.26756 c 4.57419,2.44574 9.66732,5.27855 9.66732,5.27855 l 367.95342,249.37776 94.42732,-207.87463 -464.364,-58.826643 c 0,0 -4.53161,-0.778292 -6.98271,0.581796 -4.84701,2.689557 -5.3792,8.962007 -0.70135,11.463167 z"
          id="path4"
          transform="translate(-1.2475722e-6)"
        /><path
          style="display:inline;fill:url(#pattern44);fill-opacity:1;fill-rule:nonzero;stroke:#d8107d;stroke-width:4.04052;stroke-dasharray:none;stroke-opacity:1;paint-order:markers fill stroke"
          d="m 210.27845,109.26756 c 4.57419,2.44574 9.66732,5.27855 9.66732,5.27855 L 588.54688,365.101 684.22069,156.40017 217.96251,97.222597 c 0,0 -4.53161,-0.778292 -6.98271,0.581796 -4.84701,2.689557 -5.3792,8.962007 -0.70135,11.463167 z"
          id="path4-6"
        /></g>
	
	
	
	
</g></g><style type="text/css" id="style1">
.st0 {
  fill: #000000;
}
  </style><circle
    style="display:none;fill:none;fill-opacity:1;fill-rule:nonzero;stroke:#ff0000;stroke-width:1.37583;stroke-dasharray:none;stroke-opacity:1"
    id="path7"
    cx="256"
    cy="256"
    r="256"
  /><g
    id="use16"
    transform="matrix(0.26458333,0,0,0.26458333,208.49167,468.3125)"
    style="display:none"
  ><title id="title20">App Icon Guides</title><g
      id="g29"
      transform="matrix(1.8842434,0,0,1.8842675,-785.17366,-1767.1736)"
    ><title id="title21">App Icon Guides</title><path
        style="fill:none;stroke:#919191;stroke-width:3px"
        d="m 0,739.001 v -454 C 0,135.001 112,0 284.999,0 H 739.001 C 912,0 1024,135.001 1024,285.001 v 454 C 1024,889.001 912,1024 739.001,1024 H 284.999 C 112,1024 0,889.001 0,739.001 Z"
        id="path22"
      ><title id="title22">Outer Bounding Box</title></path><path
        style="fill:none;stroke:#919191;stroke-width:3px"
        d="m 50,739.001 v -454 C 50,162 140,50 284.999,50 H 739.001 C 884.001,50 974,162 974,285.001 v 454 C 974,862 884.001,974 739.001,974 H 284.999 C 140,974 50,862 50,739.001 Z"
        id="path23"
      ><title id="title23">Inner Bounding Box</title></path><path
        style="fill:none;stroke:#ff0000;stroke-width:3px"
        d="m 100,724.005 v -424 C 100,185.006 170,100 300.026,100.005 L 724,100 c 130,0.005 200,85.006 200,200.005 v 424 c 0,115.001 -70,199.995 -200,200 H 300.026 C 170,924.005 100,839.006 100,724.005 Z"
        id="path24"
      ><title id="title24">Icon Grid Bounding Box</title></path><path
        style="fill:none;stroke:#ff0000"
        d="M 154.017,870.001 H 870.001 V 154.014 H 154.017 Z m 0,0 715.984,-715.987 z M 100,511.995 h 824 z m 0,157.365 H 924 Z M 924,354.631 H 100 Z M 669.365,99.995 v 824 z m -314.73,824 v -824 z M 512,99.995 v 824 z m -357.983,54.019 715.984,715.987 z"
        id="path25"
      ><title id="title25">Icon Grid</title></path><circle
        style="fill:none"
        cx="512"
        cy="511.995"
        r="157.397"
        id="circle26"
      ><title id="title26">Grid Circle 1</title></circle><circle
        style="fill:none"
        cx="512"
        cy="511.995"
        r="222.577"
        id="circle27"
      ><title id="title27">Grid Circle 2</title></circle><circle
        style="fill:none"
        cx="512"
        cy="511.995"
        r="358.00101"
        id="circle28"
      ><title id="title28">Grid Circle 3</title></circle></g></g></svg>
