<svg version="1.1" id="Layer_1" xmlns="http://www.w3.org/2000/svg" xmlns:xlink="http://www.w3.org/1999/xlink" x="0px" y="0px"
	 width="100%" viewBox="0 0 1080 1080" enable-background="new 0 0 1080 1080" xml:space="preserve">
<path fill="#64D246" opacity="1.000000" stroke="none" 
	d="
M742.000000,1081.000000 
	C494.695160,1081.000000 247.890305,1081.000000 1.042725,1081.000000 
	C1.042725,721.070007 1.042725,361.140045 1.042725,1.105038 
	C360.888397,1.105038 720.776855,1.105038 1080.832642,1.105038 
	C1080.832642,360.999939 1080.832642,720.999939 1080.832642,1081.000000 
	C968.139587,1081.000000 855.319763,1081.000000 742.000000,1081.000000 
M721.500000,859.849976 
	C758.162109,859.849976 794.824402,859.918945 831.486267,859.817566 
	C847.203125,859.774048 861.850220,855.834839 874.467712,846.109436 
	C896.494141,829.131836 905.566406,805.625854 905.698425,778.826538 
	C906.111145,695.004761 905.851501,611.179749 905.849365,527.355957 
	C905.848206,481.366211 868.585632,444.015106 822.668579,444.001099 
	C774.174133,443.986298 725.679626,443.997772 677.185181,443.997772 
	C675.426697,443.997772 673.668274,443.997772 670.860413,443.997772 
	C709.564636,431.888916 735.365662,402.257874 731.697144,374.392670 
	C724.978027,374.392670 718.171997,374.532623 711.376282,374.329437 
	C708.305603,374.237579 707.520874,375.521149 707.050110,378.313354 
	C704.185669,395.303497 694.807007,407.599243 679.281982,414.894653 
	C674.261597,417.253784 668.663574,418.383820 662.750244,420.259949 
	C662.750244,427.760010 662.750244,435.682892 662.750244,443.620361 
	C659.849060,443.620361 657.469421,443.620361 654.627808,443.620361 
	C654.627808,435.317261 654.627808,427.383514 654.627808,419.650879 
	C628.548157,415.225037 613.904724,399.988831 609.605225,374.774536 
	C601.365234,374.774536 593.447205,374.774536 585.571594,374.774536 
	C583.379639,403.676025 607.774475,431.341034 646.113647,443.758789 
	C576.041931,443.758789 506.080902,443.758789 435.201141,443.758789 
	C472.067230,434.172638 500.112030,402.238281 496.258667,374.692322 
	C488.368622,374.692322 480.432007,374.692322 472.387604,374.692322 
	C468.012634,400.184692 453.260223,415.318512 427.039551,419.717407 
	C427.039551,427.694397 427.039551,435.742645 427.039551,443.701904 
	C424.115692,443.701904 421.854950,443.701904 419.094940,443.701904 
	C419.094940,435.496979 419.094940,427.576294 419.094940,419.769836 
	C394.445892,415.289093 379.128662,401.832245 374.642120,377.113281 
	C374.461182,376.116455 373.184448,374.571716 372.384521,374.550446 
	C364.953827,374.352753 357.515747,374.433502 349.560791,374.433502 
	C350.598602,392.248688 356.896301,407.047272 368.203156,419.782990 
	C379.459503,432.461792 393.706573,439.988800 410.062988,443.997772 
	C408.067993,443.997772 406.072998,443.997772 404.078003,443.997772 
	C355.416901,443.997803 306.755646,443.930237 258.094696,444.017853 
	C213.801132,444.097595 176.168274,481.844116 176.156509,526.093445 
	C176.134232,609.917175 176.125763,693.740967 176.213196,777.564636 
	C176.218185,782.357483 176.703644,787.241028 177.696426,791.927490 
	C186.417542,833.095398 219.538376,859.848938 261.552399,859.849365 
	C414.534943,859.850891 567.517456,859.849915 721.500000,859.849976 
M578.619324,219.866623 
	C571.920776,207.411026 565.207153,194.963516 558.530273,182.496323 
	C555.286621,176.439774 550.311707,173.530396 543.429260,174.029419 
	C542.448730,174.100525 541.380005,174.199448 540.529785,174.633606 
	C528.466492,180.793930 516.433899,187.014328 504.015472,193.415268 
	C517.961243,214.897812 531.424500,235.637070 545.016174,256.574188 
	C527.393555,265.561676 510.201874,274.319916 493.019440,283.096252 
	C483.951447,287.727966 481.237030,294.910919 485.015015,304.242828 
	C487.760895,311.025208 490.521759,317.801575 493.302734,324.569580 
	C496.955048,333.458344 500.633667,342.336334 504.430206,351.531891 
	C512.296204,348.675415 519.721619,345.978943 527.415039,343.185150 
	C524.276733,331.677063 521.288757,320.720062 518.257202,309.603394 
	C537.988037,302.241943 556.989014,295.171661 575.975830,288.063568 
	C593.857666,281.369080 601.137512,262.627838 592.382935,245.604980 
	C588.046265,237.172546 583.462769,228.867126 578.619324,219.866623 
M546.334167,382.850800 
	C545.679443,387.084778 545.024780,391.318726 544.308777,395.949066 
	C551.724670,397.823303 558.889893,399.634155 566.468384,401.549500 
	C575.718201,364.376160 584.810486,327.835876 593.955261,291.084717 
	C593.016296,291.024963 592.506042,290.848694 592.105774,290.988068 
	C582.057617,294.486145 571.983337,297.917450 562.028625,301.665619 
	C560.740784,302.150574 559.475098,304.201233 559.220764,305.700012 
	C554.905884,331.121613 550.752808,356.570648 546.334167,382.850800 
M484.451111,142.945572 
	C484.434265,144.277847 484.341736,145.614151 484.412140,146.941803 
	C485.296356,163.619476 498.902100,175.822876 515.751282,175.074921 
	C531.489502,174.376266 544.255737,160.719818 543.840454,145.027039 
	C543.444702,130.071487 531.505371,117.042732 517.256104,116.016869 
	C500.202820,114.789154 487.175720,125.198059 484.451111,142.945572 
M589.204712,345.794250 
	C587.647034,352.464813 586.089355,359.135376 584.407166,366.339233 
	C593.709290,366.339233 601.635132,366.339233 609.632690,366.339233 
	C614.024963,340.769470 628.865356,325.732666 654.472778,321.431671 
	C654.472778,313.277618 654.472778,305.246826 654.472778,297.222900 
	C629.921814,297.283295 600.478821,314.737213 589.204712,345.794250 
M458.658936,336.853943 
	C466.605560,345.046295 470.609741,355.091736 472.155945,366.157745 
	C480.475464,366.157745 488.508667,366.157745 496.536774,366.157745 
	C495.542603,327.582825 460.721069,297.102661 427.477783,297.366699 
	C427.477783,305.419586 427.477783,313.472412 427.477783,321.619934 
	C439.545532,323.146637 449.813904,327.774170 458.658936,336.853943 
M662.851807,319.156403 
	C663.854187,320.114685 664.726135,321.698547 665.878296,321.938812 
	C688.818970,326.723206 702.875305,340.224457 707.245483,363.483429 
	C707.452026,364.582611 708.496033,366.381744 709.189697,366.400665 
	C716.885376,366.610413 724.588867,366.532745 732.287537,366.532745 
	C730.727600,326.528351 695.529968,297.024597 662.847107,297.416992 
	C662.847107,304.342255 662.847107,311.281952 662.851807,319.156403 
M377.106750,353.838287 
	C384.650238,334.803253 398.977997,324.411835 418.851379,321.481049 
	C418.851379,313.158203 418.851379,305.241669 418.851379,297.328796 
	C378.714325,297.781921 349.009857,335.529846 350.139709,366.140167 
	C350.438599,366.266083 350.736389,366.498810 351.036591,366.501984 
	C356.028137,366.555084 361.019989,366.596619 366.011810,366.606232 
	C373.772980,366.621216 373.760010,366.606995 375.526215,359.386536 
	C375.920044,357.776520 376.440674,356.197571 377.106750,353.838287 
M434.686371,230.230072 
	C432.384674,231.474625 430.082977,232.719177 427.396637,234.171707 
	C430.018463,240.578949 432.488647,246.615570 435.052734,252.881683 
	C461.821594,243.034012 487.898895,233.440720 514.299683,223.728424 
	C508.356537,214.585999 502.784088,206.013824 497.066895,197.219040 
	C476.119385,208.324982 455.744415,219.127350 434.686371,230.230072 
z"/>
<path fill="#010100" opacity="1.000000" stroke="none" 
	d="
M721.000000,859.849915 
	C567.517456,859.849915 414.534943,859.850891 261.552399,859.849365 
	C219.538376,859.848938 186.417542,833.095398 177.696426,791.927490 
	C176.703644,787.241028 176.218185,782.357483 176.213196,777.564636 
	C176.125763,693.740967 176.134232,609.917175 176.156509,526.093445 
	C176.168274,481.844116 213.801132,444.097595 258.094696,444.017853 
	C306.755646,443.930237 355.416901,443.997803 404.078003,443.997772 
	C406.072998,443.997772 408.067993,443.997772 410.062988,443.997772 
	C393.706573,439.988800 379.459503,432.461792 368.203156,419.782990 
	C356.896301,407.047272 350.598602,392.248688 349.560791,374.433502 
	C357.515747,374.433502 364.953827,374.352753 372.384521,374.550446 
	C373.184448,374.571716 374.461182,376.116455 374.642120,377.113281 
	C379.128662,401.832245 394.445892,415.289093 419.094940,419.769836 
	C419.094940,427.576294 419.094940,435.496979 419.094940,443.701904 
	C421.854950,443.701904 424.115692,443.701904 427.039551,443.701904 
	C427.039551,435.742645 427.039551,427.694397 427.039551,419.717407 
	C453.260223,415.318512 468.012634,400.184692 472.387604,374.692322 
	C480.432007,374.692322 488.368622,374.692322 496.258667,374.692322 
	C500.112030,402.238281 472.067230,434.172638 435.201141,443.758789 
	C506.080902,443.758789 576.041931,443.758789 646.113647,443.758789 
	C607.774475,431.341034 583.379639,403.676025 585.571594,374.774536 
	C593.447205,374.774536 601.365234,374.774536 609.605225,374.774536 
	C613.904724,399.988831 628.548157,415.225037 654.627808,419.650879 
	C654.627808,427.383514 654.627808,435.317261 654.627808,443.620361 
	C657.469421,443.620361 659.849060,443.620361 662.750244,443.620361 
	C662.750244,435.682892 662.750244,427.760010 662.750244,420.259949 
	C668.663574,418.383820 674.261597,417.253784 679.281982,414.894653 
	C694.807007,407.599243 704.185669,395.303497 707.050110,378.313354 
	C707.520874,375.521149 708.305603,374.237579 711.376282,374.329437 
	C718.171997,374.532623 724.978027,374.392670 731.697144,374.392670 
	C735.365662,402.257874 709.564636,431.888916 670.860413,443.997772 
	C673.668274,443.997772 675.426697,443.997772 677.185181,443.997772 
	C725.679626,443.997772 774.174133,443.986298 822.668579,444.001099 
	C868.585632,444.015106 905.848206,481.366211 905.849365,527.355957 
	C905.851501,611.179749 906.111145,695.004761 905.698425,778.826538 
	C905.566406,805.625854 896.494141,829.131836 874.467712,846.109436 
	C861.850220,855.834839 847.203125,859.774048 831.486267,859.817566 
	C794.824402,859.918945 758.162109,859.849976 721.000000,859.849915 
M842.457458,821.086853 
	C851.460938,818.466431 857.632629,812.537170 862.109070,804.505981 
	C867.211914,795.350952 868.770508,785.346375 868.782776,775.139038 
	C868.881226,692.975220 868.974243,610.810791 868.762085,528.647400 
	C868.690063,500.771271 848.296875,481.162262 820.428711,481.162231 
	C634.101501,481.162048 447.774261,481.162140 261.447052,481.162170 
	C233.855087,481.162201 213.367706,500.597656 213.268524,528.266724 
	C212.973419,610.596313 213.006088,692.928162 213.250031,775.258057 
	C213.331970,802.912048 233.762436,822.512878 261.308685,822.513184 
	C450.802460,822.515259 640.296265,822.521790 829.790039,822.462402 
	C833.747742,822.461121 837.705139,821.685608 842.457458,821.086853 
z"/>
<path fill="#010100" opacity="1.000000" stroke="none" 
	d="
M578.805115,220.185425 
	C583.462769,228.867126 588.046265,237.172546 592.382935,245.604980 
	C601.137512,262.627838 593.857666,281.369080 575.975830,288.063568 
	C556.989014,295.171661 537.988037,302.241943 518.257202,309.603394 
	C521.288757,320.720062 524.276733,331.677063 527.415039,343.185150 
	C519.721619,345.978943 512.296204,348.675415 504.430206,351.531891 
	C500.633667,342.336334 496.955048,333.458344 493.302734,324.569580 
	C490.521759,317.801575 487.760895,311.025208 485.015015,304.242828 
	C481.237030,294.910919 483.951447,287.727966 493.019440,283.096252 
	C510.201874,274.319916 527.393555,265.561676 545.016174,256.574188 
	C531.424500,235.637070 517.961243,214.897812 504.015472,193.415268 
	C516.433899,187.014328 528.466492,180.793930 540.529785,174.633606 
	C541.380005,174.199448 542.448730,174.100525 543.429260,174.029419 
	C550.311707,173.530396 555.286621,176.439774 558.530273,182.496323 
	C565.207153,194.963516 571.920776,207.411026 578.805115,220.185425 
z"/>
<path fill="#010201" opacity="1.000000" stroke="none" 
	d="
M546.449036,382.432220 
	C550.752808,356.570648 554.905884,331.121613 559.220764,305.700012 
	C559.475098,304.201233 560.740784,302.150574 562.028625,301.665619 
	C571.983337,297.917450 582.057617,294.486145 592.105774,290.988068 
	C592.506042,290.848694 593.016296,291.024963 593.955261,291.084717 
	C584.810486,327.835876 575.718201,364.376160 566.468384,401.549500 
	C558.889893,399.634155 551.724670,397.823303 544.308777,395.949066 
	C545.024780,391.318726 545.679443,387.084778 546.449036,382.432220 
z"/>
<path fill="#010201" opacity="1.000000" stroke="none" 
	d="
M484.524780,142.528290 
	C487.175720,125.198059 500.202820,114.789154 517.256104,116.016869 
	C531.505371,117.042732 543.444702,130.071487 543.840454,145.027039 
	C544.255737,160.719818 531.489502,174.376266 515.751282,175.074921 
	C498.902100,175.822876 485.296356,163.619476 484.412140,146.941803 
	C484.341736,145.614151 484.434265,144.277847 484.524780,142.528290 
z"/>
<path fill="#010201" opacity="1.000000" stroke="none" 
	d="
M589.353882,345.432434 
	C600.478821,314.737213 629.921814,297.283295 654.472778,297.222900 
	C654.472778,305.246826 654.472778,313.277618 654.472778,321.431671 
	C628.865356,325.732666 614.024963,340.769470 609.632690,366.339233 
	C601.635132,366.339233 593.709290,366.339233 584.407166,366.339233 
	C586.089355,359.135376 587.647034,352.464813 589.353882,345.432434 
z"/>
<path fill="#010201" opacity="1.000000" stroke="none" 
	d="
M458.406494,336.601196 
	C449.813904,327.774170 439.545532,323.146637 427.477783,321.619934 
	C427.477783,313.472412 427.477783,305.419586 427.477783,297.366699 
	C460.721069,297.102661 495.542603,327.582825 496.536774,366.157745 
	C488.508667,366.157745 480.475464,366.157745 472.155945,366.157745 
	C470.609741,355.091736 466.605560,345.046295 458.406494,336.601196 
z"/>
<path fill="#010201" opacity="1.000000" stroke="none" 
	d="
M662.849487,318.689026 
	C662.847107,311.281952 662.847107,304.342255 662.847107,297.416992 
	C695.529968,297.024597 730.727600,326.528351 732.287537,366.532745 
	C724.588867,366.532745 716.885376,366.610413 709.189697,366.400665 
	C708.496033,366.381744 707.452026,364.582611 707.245483,363.483429 
	C702.875305,340.224457 688.818970,326.723206 665.878296,321.938812 
	C664.726135,321.698547 663.854187,320.114685 662.849487,318.689026 
z"/>
<path fill="#010201" opacity="1.000000" stroke="none" 
	d="
M377.004822,354.221313 
	C376.440674,356.197571 375.920044,357.776520 375.526215,359.386536 
	C373.760010,366.606995 373.772980,366.621216 366.011810,366.606232 
	C361.019989,366.596619 356.028137,366.555084 351.036591,366.501984 
	C350.736389,366.498810 350.438599,366.266083 350.142212,366.134277 
	C349.009857,335.529846 378.714325,297.781921 418.851379,297.328796 
	C418.851379,305.241669 418.851379,313.158203 418.851379,321.481049 
	C398.977997,324.411835 384.650238,334.803253 377.004822,354.221313 
z"/>
<path fill="#010201" opacity="1.000000" stroke="none" 
	d="
M435.027924,230.079895 
	C455.744415,219.127350 476.119385,208.324982 497.066895,197.219040 
	C502.784088,206.013824 508.356537,214.585999 514.299683,223.728424 
	C487.898895,233.440720 461.821594,243.034012 435.052734,252.881683 
	C432.488647,246.615570 430.018463,240.578949 427.396637,234.171707 
	C430.082977,232.719177 432.384674,231.474625 435.027924,230.079895 
z"/>
<path fill="#FCFCFC" opacity="1.000000" stroke="none" 
	d="
M842.060059,821.179077 
	C837.705139,821.685608 833.747742,822.461121 829.790039,822.462402 
	C640.296265,822.521790 450.802460,822.515259 261.308685,822.513184 
	C233.762436,822.512878 213.331970,802.912048 213.250031,775.258057 
	C213.006088,692.928162 212.973419,610.596313 213.268524,528.266724 
	C213.367706,500.597656 233.855087,481.162201 261.447052,481.162170 
	C447.774261,481.162140 634.101501,481.162048 820.428711,481.162231 
	C848.296875,481.162262 868.690063,500.771271 868.762085,528.647400 
	C868.974243,610.810791 868.881226,692.975220 868.782776,775.139038 
	C868.770508,785.346375 867.211914,795.350952 862.109070,804.505981 
	C857.632629,812.537170 851.460938,818.466431 842.060059,821.179077 
M510.500153,776.484558 
	C518.497314,776.484436 526.496216,776.590637 534.491333,776.464050 
	C557.563232,776.098816 571.101196,764.651245 572.877258,741.840759 
	C574.282043,723.798523 574.202332,705.565796 573.483521,687.469177 
	C573.184875,679.951477 570.642639,671.974304 567.122314,665.252625 
	C560.707092,653.003418 548.412720,649.436768 535.343872,647.553711 
	C536.067688,647.250366 536.502319,647.022461 536.963684,646.884277 
	C537.920410,646.597778 538.880188,646.302673 539.858093,646.108643 
	C558.250244,642.459778 569.423401,631.425293 572.356323,612.951721 
	C575.400146,593.779602 575.463257,574.371155 572.499146,555.238770 
	C569.546143,536.177979 559.377747,526.611511 540.264160,524.877502 
	C526.046997,523.587708 511.655029,524.223083 497.340790,524.007690 
	C495.772705,523.984070 494.203979,524.004517 492.808929,524.004517 
	C492.808929,538.495117 492.808929,552.262329 492.808929,565.789429 
	C493.228699,566.124268 493.353790,566.311401 493.481537,566.313232 
	C498.143250,566.381226 502.806702,566.375488 507.466797,566.497986 
	C515.357727,566.705383 521.124573,570.269653 521.697205,577.720886 
	C522.621643,589.747253 522.383850,601.922241 521.725586,613.984741 
	C521.416443,619.649658 517.221252,624.192627 511.354889,624.607910 
	C502.003754,625.269958 492.571442,624.784851 482.823639,624.784851 
	C482.823639,591.088806 482.823639,557.677551 482.823639,524.271851 
	C465.730530,524.271851 448.995972,524.271851 432.245605,524.271851 
	C432.245605,608.450317 432.245605,692.361145 432.245605,776.213013 
	C449.224091,776.213013 465.960175,776.213013 483.157410,776.213013 
	C483.157410,739.890320 483.157410,703.836548 483.157410,667.691101 
	C491.926025,667.691101 500.248291,667.357178 508.530701,667.788391 
	C516.261597,668.190857 521.314636,671.990295 521.771240,679.520386 
	C522.623596,693.576233 522.782471,707.760254 521.882812,721.804626 
	C521.329651,730.440308 515.801880,734.035217 507.163727,734.160828 
	C502.390015,734.230225 497.614471,734.173279 492.820862,734.173279 
	C492.820862,748.554626 492.820862,762.302612 492.820862,776.484619 
	C498.577942,776.484619 504.038971,776.484619 510.500153,776.484558 
M688.356873,738.994690 
	C689.949158,751.481995 691.541382,763.969299 693.097595,776.173828 
	C710.318909,776.173828 726.931274,776.173828 743.852783,776.173828 
	C732.764526,691.952209 721.722046,608.078491 710.674072,524.162598 
	C680.944031,524.162598 651.663696,524.162598 622.085388,524.162598 
	C620.457642,535.742981 618.846008,547.208862 617.184875,559.027344 
	C633.656189,559.027344 649.782043,559.027344 666.092407,559.027344 
	C666.380859,560.761230 666.677856,562.217590 666.859741,563.688232 
	C670.473755,592.917969 674.093872,622.147034 677.672241,651.381165 
	C681.210266,680.285278 684.703369,709.194885 688.356873,738.994690 
M321.482971,682.500366 
	C321.482971,629.764465 321.482971,577.028564 321.482971,524.292603 
	C304.164062,524.292603 287.414062,524.292603 270.915833,524.292603 
	C270.915833,608.465332 270.915833,692.350342 270.915833,776.171387 
	C287.898529,776.171387 304.480530,776.171387 321.483002,776.171387 
	C321.483002,745.074646 321.483002,714.287537 321.482971,682.500366 
M655.869873,647.238892 
	C657.088806,637.505615 658.178772,627.754089 659.555786,618.043274 
	C661.863464,601.769775 664.354553,585.522278 659.237488,569.222107 
	C644.948425,569.222107 630.509521,569.222107 615.934082,569.222107 
	C606.909119,638.288879 597.910034,707.158081 588.883667,776.235779 
	C606.225098,776.235779 622.950500,776.235779 639.996399,776.235779 
	C641.021423,767.627869 642.009338,759.225037 643.025818,750.825684 
	C644.040039,742.445312 645.082886,734.068420 646.161377,725.298401 
	C656.936523,725.298401 667.352539,725.298401 678.091553,725.298401 
	C676.315857,711.022827 674.600220,697.229919 672.840637,683.084229 
	C665.529785,683.084229 658.593750,683.084229 651.275208,683.084229 
	C652.816406,671.134399 654.299805,659.632629 655.869873,647.238892 
M412.828278,616.499023 
	C412.554199,598.185608 412.797119,579.846191 411.875397,561.565430 
	C410.718506,538.619385 399.270172,526.322571 376.702850,524.571777 
	C361.681885,523.406433 346.497253,524.350647 331.217346,524.350647 
	C331.217346,538.336060 331.217346,552.257141 331.217346,566.487366 
	C335.893890,566.487366 340.362976,566.455505 344.831451,566.493835 
	C354.777405,566.579346 360.497681,571.088684 360.902222,580.989441 
	C361.506561,595.779114 361.519043,610.628906 360.928772,625.419006 
	C360.525269,635.530396 354.764893,640.244507 344.677490,640.493347 
	C340.235626,640.602966 335.788788,640.511841 331.354370,640.511841 
	C331.354370,654.847351 331.354370,668.736023 331.354370,682.823120 
	C345.518768,682.823120 359.347473,683.229492 373.143829,682.734070 
	C397.816437,681.847961 410.544098,669.138794 412.004944,644.432129 
	C412.534882,635.469238 412.568298,626.477112 412.828278,616.499023 
M813.173401,567.551208 
	C813.173401,553.152710 813.173401,538.754150 813.173401,524.255981 
	C796.099854,524.255981 778.189758,524.255981 760.085571,524.255981 
	C761.817993,584.994690 763.543030,645.475769 765.272522,706.112671 
	C780.160217,706.112671 794.690491,706.112671 809.475098,706.112671 
	C810.710999,660.010620 811.937073,614.273987 813.173401,567.551208 
M762.005310,728.625427 
	C762.005310,744.534668 762.005310,760.443848 762.005310,776.347839 
	C779.290405,776.347839 795.917297,776.347839 812.651978,776.347839 
	C812.651978,758.844177 812.651978,741.477661 812.651978,724.005432 
	C796.660889,724.005432 781.011292,724.094238 765.364380,723.929077 
	C762.305481,723.896851 761.612610,725.047119 762.005310,728.625427 
z"/>
<path fill="#000000" opacity="1.000000" stroke="none" 
	d="
M510.000061,776.484619 
	C504.038971,776.484619 498.577942,776.484619 492.820862,776.484619 
	C492.820862,762.302612 492.820862,748.554626 492.820862,734.173279 
	C497.614471,734.173279 502.390015,734.230225 507.163727,734.160828 
	C515.801880,734.035217 521.329651,730.440308 521.882812,721.804626 
	C522.782471,707.760254 522.623596,693.576233 521.771240,679.520386 
	C521.314636,671.990295 516.261597,668.190857 508.530701,667.788391 
	C500.248291,667.357178 491.926025,667.691101 483.157410,667.691101 
	C483.157410,703.836548 483.157410,739.890320 483.157410,776.213013 
	C465.960175,776.213013 449.224091,776.213013 432.245605,776.213013 
	C432.245605,692.361145 432.245605,608.450317 432.245605,524.271851 
	C448.995972,524.271851 465.730530,524.271851 482.823639,524.271851 
	C482.823639,557.677551 482.823639,591.088806 482.823639,624.784851 
	C492.571442,624.784851 502.003754,625.269958 511.354889,624.607910 
	C517.221252,624.192627 521.416443,619.649658 521.725586,613.984741 
	C522.383850,601.922241 522.621643,589.747253 521.697205,577.720886 
	C521.124573,570.269653 515.357727,566.705383 507.466797,566.497986 
	C502.806702,566.375488 498.143250,566.381226 493.481537,566.313232 
	C493.353790,566.311401 493.228699,566.124268 492.808929,565.789429 
	C492.808929,552.262329 492.808929,538.495117 492.808929,524.004517 
	C494.203979,524.004517 495.772705,523.984070 497.340790,524.007690 
	C511.655029,524.223083 526.046997,523.587708 540.264160,524.877502 
	C559.377747,526.611511 569.546143,536.177979 572.499146,555.238770 
	C575.463257,574.371155 575.400146,593.779602 572.356323,612.951721 
	C569.423401,631.425293 558.250244,642.459778 539.858093,646.108643 
	C538.880188,646.302673 537.920410,646.597778 536.963684,646.884277 
	C536.502319,647.022461 536.067688,647.250366 535.343872,647.553711 
	C548.412720,649.436768 560.707092,653.003418 567.122314,665.252625 
	C570.642639,671.974304 573.184875,679.951477 573.483521,687.469177 
	C574.202332,705.565796 574.282043,723.798523 572.877258,741.840759 
	C571.101196,764.651245 557.563232,776.098816 534.491333,776.464050 
	C526.496216,776.590637 518.497314,776.484436 510.000061,776.484619 
z"/>
<path fill="#010101" opacity="1.000000" stroke="none" 
	d="
M688.286499,738.548340 
	C684.703369,709.194885 681.210266,680.285278 677.672241,651.381165 
	C674.093872,622.147034 670.473755,592.917969 666.859741,563.688232 
	C666.677856,562.217590 666.380859,560.761230 666.092407,559.027344 
	C649.782043,559.027344 633.656189,559.027344 617.184875,559.027344 
	C618.846008,547.208862 620.457642,535.742981 622.085388,524.162598 
	C651.663696,524.162598 680.944031,524.162598 710.674072,524.162598 
	C721.722046,608.078491 732.764526,691.952209 743.852783,776.173828 
	C726.931274,776.173828 710.318909,776.173828 693.097595,776.173828 
	C691.541382,763.969299 689.949158,751.481995 688.286499,738.548340 
z"/>
<path fill="#000000" opacity="1.000000" stroke="none" 
	d="
M321.482971,683.000366 
	C321.483002,714.287537 321.483002,745.074646 321.483002,776.171387 
	C304.480530,776.171387 287.898529,776.171387 270.915833,776.171387 
	C270.915833,692.350342 270.915833,608.465332 270.915833,524.292603 
	C287.414062,524.292603 304.164062,524.292603 321.482971,524.292603 
	C321.482971,577.028564 321.482971,629.764465 321.482971,683.000366 
z"/>
<path fill="#010101" opacity="1.000000" stroke="none" 
	d="
M655.826538,647.684875 
	C654.299805,659.632629 652.816406,671.134399 651.275208,683.084229 
	C658.593750,683.084229 665.529785,683.084229 672.840637,683.084229 
	C674.600220,697.229919 676.315857,711.022827 678.091553,725.298401 
	C667.352539,725.298401 656.936523,725.298401 646.161377,725.298401 
	C645.082886,734.068420 644.040039,742.445312 643.025818,750.825684 
	C642.009338,759.225037 641.021423,767.627869 639.996399,776.235779 
	C622.950500,776.235779 606.225098,776.235779 588.883667,776.235779 
	C597.910034,707.158081 606.909119,638.288879 615.934082,569.222107 
	C630.509521,569.222107 644.948425,569.222107 659.237488,569.222107 
	C664.354553,585.522278 661.863464,601.769775 659.555786,618.043274 
	C658.178772,627.754089 657.088806,637.505615 655.826538,647.684875 
z"/>
<path fill="#010101" opacity="1.000000" stroke="none" 
	d="
M412.828247,616.998657 
	C412.568298,626.477112 412.534882,635.469238 412.004944,644.432129 
	C410.544098,669.138794 397.816437,681.847961 373.143829,682.734070 
	C359.347473,683.229492 345.518768,682.823120 331.354370,682.823120 
	C331.354370,668.736023 331.354370,654.847351 331.354370,640.511841 
	C335.788788,640.511841 340.235626,640.602966 344.677490,640.493347 
	C354.764893,640.244507 360.525269,635.530396 360.928772,625.419006 
	C361.519043,610.628906 361.506561,595.779114 360.902222,580.989441 
	C360.497681,571.088684 354.777405,566.579346 344.831451,566.493835 
	C340.362976,566.455505 335.893890,566.487366 331.217346,566.487366 
	C331.217346,552.257141 331.217346,538.336060 331.217346,524.350647 
	C346.497253,524.350647 361.681885,523.406433 376.702850,524.571777 
	C399.270172,526.322571 410.718506,538.619385 411.875397,561.565430 
	C412.797119,579.846191 412.554199,598.185608 412.828247,616.998657 
z"/>
<path fill="#010101" opacity="1.000000" stroke="none" 
	d="
M813.168274,568.044312 
	C811.937073,614.273987 810.710999,660.010620 809.475098,706.112671 
	C794.690491,706.112671 780.160217,706.112671 765.272522,706.112671 
	C763.543030,645.475769 761.817993,584.994690 760.085571,524.255981 
	C778.189758,524.255981 796.099854,524.255981 813.173401,524.255981 
	C813.173401,538.754150 813.173401,553.152710 813.168274,568.044312 
z"/>
<path fill="#000000" opacity="1.000000" stroke="none" 
	d="
M762.005310,728.140259 
	C761.612610,725.047119 762.305481,723.896851 765.364380,723.929077 
	C781.011292,724.094238 796.660889,724.005432 812.651978,724.005432 
	C812.651978,741.477661 812.651978,758.844177 812.651978,776.347839 
	C795.917297,776.347839 779.290405,776.347839 762.005310,776.347839 
	C762.005310,760.443848 762.005310,744.534668 762.005310,728.140259 
z"/>
</svg>